<svg width="49" height="54" viewBox="0 0 49 54" fill="none" xmlns="http://www.w3.org/2000/svg">
<g clip-path="url(#clip0_1_137)">
<path fill-rule="evenodd" clip-rule="evenodd" d="M14.4914 41.3531C2.73347 33.4259 12.0087 10.5141 18.1161 0.0490723C16.7655 4.95454 15.1369 17.1365 14.4914 22.6142C12.4409 35.7039 20.1375 38.8868 24.3302 38.8526V38.8513C24.3454 38.8516 24.3608 38.8519 24.3761 38.8521C24.3915 38.8519 24.4068 38.8516 24.4221 38.8513V38.8526C28.6147 38.8868 36.3114 35.7039 34.2609 22.6142C33.6154 17.1365 31.9867 4.95454 30.6362 0.0490723C36.7435 10.5141 46.0188 33.4259 34.2609 41.3531C32.9453 42.5391 29.1462 44.9034 24.4221 44.9338V44.9341C24.4067 44.9341 24.3914 44.9341 24.3761 44.934C24.3608 44.9341 24.3455 44.9341 24.3302 44.9341V44.9338C19.606 44.9034 15.8069 42.5391 14.4914 41.3531ZM8.81705 6.32806C2.1635 14.3566 -7.15148 33.9164 8.81705 47.9264C11.0762 49.8162 17.351 53.589 24.4295 53.6166V53.6658C31.5398 53.6658 37.8525 49.8722 40.12 47.9755C56.0885 33.9655 46.7735 14.4057 40.12 6.37714C44.2114 21.7607 43.2151 31.2969 42.2054 34.1421C39.0454 44.9905 29.1428 47.4896 24.5075 47.3888V47.3377C19.9063 47.4685 9.90943 45.0028 6.73161 34.093C5.72199 31.2478 4.72561 21.7116 8.81705 6.32806Z" fill="url(#paint0_linear_1_137)"/>
</g>
<defs>
<linearGradient id="paint0_linear_1_137" x1="0.80371" y1="0.0490422" x2="50.7951" y2="0.260899" gradientUnits="userSpaceOnUse">
<stop stop-color="white"/>
<stop offset="1" stop-color="white" stop-opacity="0.42"/>
</linearGradient>
<clipPath id="clip0_1_137">
<rect width="48.9583" height="53.6658" fill="white"/>
</clipPath>
</defs>
</svg>
